<?xml version="1.0" encoding="UTF-8" standalone="no"?><!DOCTYPE svg PUBLIC "-//W3C//DTD SVG 1.1//EN" "http://www.w3.org/Graphics/SVG/1.1/DTD/svg11.dtd"><!-- Generated by graphviz version 2.40.1 (20161225.0304)
 --><!-- Title: %0 Pages: 1 --><svg xmlns="http://www.w3.org/2000/svg" xmlns:xlink="http://www.w3.org/1999/xlink" width="452pt" height="222pt" viewBox="0.00 0.00 451.82 221.60">
<g id="graph0" class="graph" transform="scale(1 1) rotate(0) translate(4 217.6)">
<title>%0</title>
<polygon fill="#ffffff" stroke="transparent" points="-4,4 -4,-217.6 447.8199,-217.6 447.8199,4 -4,4"/>
<!-- 0 -->
<g id="node1" class="node">
<title>0</title>
<ellipse fill="none" stroke="#000000" cx="95.8777" cy="-195.6" rx="50.9619" ry="18"/>
<text text-anchor="middle" x="95.8777" y="-191.4" font-family="Times,serif" font-size="14.00" fill="#000000">comments</text>
</g>
<!-- 1 -->
<g id="node2" class="node">
<title>1</title>
<ellipse fill="none" stroke="#000000" cx="30.8777" cy="-18" rx="30.7558" ry="18"/>
<text text-anchor="middle" x="30.8777" y="-13.8" font-family="Times,serif" font-size="14.00" fill="#000000">users</text>
</g>
<!-- 0&#45;&gt;1 -->
<g id="edge1" class="edge">
<title>0-&gt;1</title>
<path fill="none" stroke="#000000" d="M71.3391,-179.677C54.3531,-167.0821 33.1239,-147.8158 23.4355,-124.8 12.7904,-99.5114 16.8968,-67.8748 22.2817,-45.6203"/>
<polygon fill="#000000" stroke="#000000" points="25.7016,-46.3784 24.8828,-35.8153 18.9356,-44.5835 25.7016,-46.3784"/>
<text text-anchor="middle" x="145.0988" y="-102.6" font-family="Times,serif" font-size="14.00" fill="#000000">owned_by {owned_field: commented_by }</text>
</g>
<!-- 2 -->
<g id="node3" class="node">
<title>2</title>
<ellipse fill="none" stroke="#000000" cx="305.8777" cy="-106.8" rx="30.777" ry="18"/>
<text text-anchor="middle" x="305.8777" y="-102.6" font-family="Times,serif" font-size="14.00" fill="#000000">posts</text>
</g>
<!-- 0&#45;&gt;2 -->
<g id="edge2" class="edge">
<title>0-&gt;2</title>
<path fill="none" stroke="#000000" d="M128.6902,-181.725C167.5058,-165.3115 231.8309,-138.1112 271.3713,-121.3912"/>
<polygon fill="#000000" stroke="#000000" points="273.0121,-124.4975 280.8594,-117.3792 270.2858,-118.0503 273.0121,-124.4975"/>
<text text-anchor="middle" x="331.3488" y="-147" font-family="Times,serif" font-size="14.00" fill="#000000">owned_by { owned_field: parent_post }</text>
</g>
<!-- 2&#45;&gt;1 -->
<g id="edge3" class="edge">
<title>2-&gt;1</title>
<path fill="none" stroke="#000000" d="M280.3147,-96.154C273.9994,-93.6407 267.2248,-91.0421 260.8777,-88.8 193.8556,-65.1247 114.333,-41.6476 68.5267,-28.5619"/>
<polygon fill="#000000" stroke="#000000" points="69.3083,-25.1454 58.7322,-25.7756 67.3929,-31.8783 69.3083,-25.1454"/>
<text text-anchor="middle" x="312.4659" y="-58.2" font-family="Times,serif" font-size="14.00" fill="#000000">owned_by { owned_field: posted_by }</text>
</g>
</g>
</svg>