<?xml version="1.0" encoding="UTF-8" standalone="no"?><!DOCTYPE svg PUBLIC "-//W3C//DTD SVG 1.1//EN" "http://www.w3.org/Graphics/SVG/1.1/DTD/svg11.dtd"><!-- Generated by graphviz version 2.40.1 (20161225.0304)
 --><!-- Title: %0 Pages: 1 --><svg xmlns="http://www.w3.org/2000/svg" xmlns:xlink="http://www.w3.org/1999/xlink" width="1710pt" height="310pt" viewBox="0.00 0.00 1709.76 310.40">
<g id="graph0" class="graph" transform="scale(1 1) rotate(0) translate(4 306.4)">
<title>%0</title>
<polygon fill="#ffffff" stroke="transparent" points="-4,4 -4,-306.4 1705.7594,-306.4 1705.7594,4 -4,4"/>
<!-- 0 -->
<g id="node1" class="node">
<title>0</title>
<ellipse fill="none" stroke="#000000" cx="545.9682" cy="-106.8" rx="38.5342" ry="18"/>
<text text-anchor="middle" x="545.9682" y="-102.6" font-family="Times,serif" font-size="14.00" fill="#000000">"posts"</text>
</g>
<!-- 1 -->
<g id="node2" class="node">
<title>1</title>
<ellipse fill="none" stroke="#000000" cx="524.9682" cy="-18" rx="38.5131" ry="18"/>
<text text-anchor="middle" x="524.9682" y="-13.8" font-family="Times,serif" font-size="14.00" fill="#000000">"users"</text>
</g>
<!-- 0&#45;&gt;1 -->
<g id="edge1" class="edge">
<title>0-&gt;1</title>
<path fill="none" stroke="#000000" d="M534.1497,-89.5968C530.8423,-83.871 527.6759,-77.2927 525.9274,-70.8 523.8387,-63.0441 523.0672,-54.413 522.9561,-46.4139"/>
<polygon fill="#000000" stroke="#000000" points="526.4559,-46.4503 523.1351,-36.3894 519.457,-46.3252 526.4559,-46.4503"/>
<text text-anchor="middle" x="639.4886" y="-58.2" font-family="Times,serif" font-size="14.00" fill="#000000">OwnedBy { owned_field: "posted_by" }</text>
</g>
<!-- 2 -->
<g id="node3" class="node">
<title>2</title>
<ellipse fill="none" stroke="#000000" cx="278.9682" cy="-195.6" rx="58.7173" ry="18"/>
<text text-anchor="middle" x="278.9682" y="-191.4" font-family="Times,serif" font-size="14.00" fill="#000000">"comments"</text>
</g>
<!-- 2&#45;&gt;0 -->
<g id="edge3" class="edge">
<title>2-&gt;0</title>
<path fill="none" stroke="#000000" d="M280.2917,-177.552C282.1709,-165.7573 286.6353,-151.0595 297.1616,-142.8 331.5381,-115.826 450.2278,-133.889 492.9682,-124.8 497.3642,-123.8651 501.9018,-122.6806 506.3862,-121.367"/>
<polygon fill="#000000" stroke="#000000" points="507.5522,-124.6694 516.0429,-118.3323 505.4535,-117.9914 507.5522,-124.6694"/>
<text text-anchor="middle" x="415.3715" y="-147" font-family="Times,serif" font-size="14.00" fill="#000000">OwnedBy { owned_field: "parent_post" }</text>
</g>
<!-- 2&#45;&gt;1 -->
<g id="edge2" class="edge">
<title>2-&gt;1</title>
<path fill="none" stroke="#000000" d="M270.9989,-177.6775C262.1068,-154.6454 251.3602,-114.5662 270.9274,-88.8 295.7987,-56.0493 410.8563,-34.3996 477.2828,-24.3981"/>
<polygon fill="#000000" stroke="#000000" points="478.1215,-27.8124 487.505,-22.893 477.1018,-20.8871 478.1215,-27.8124"/>
<text text-anchor="middle" x="384.4886" y="-102.6" font-family="Times,serif" font-size="14.00" fill="#000000">OwnedBy { owned_field: "posted_by" }</text>
</g>
<!-- 3 -->
<g id="node4" class="node">
<title>3</title>
<ellipse fill="none" stroke="#000000" cx="63.9682" cy="-284.4" rx="63.9363" ry="18"/>
<text text-anchor="middle" x="63.9682" y="-280.2" font-family="Times,serif" font-size="14.00" fill="#000000">"productives"</text>
</g>
<!-- 3&#45;&gt;2 -->
<g id="edge4" class="edge">
<title>3-&gt;2</title>
<path fill="none" stroke="#000000" d="M59.1734,-266.427C57.3102,-255.1178 57.2578,-240.9457 65.3762,-231.6 75.1092,-220.3956 154.0629,-209.3199 213.1636,-202.475"/>
<polygon fill="#000000" stroke="#000000" points="213.665,-205.9406 223.2042,-201.3303 212.8721,-198.9857 213.665,-205.9406"/>
<text text-anchor="middle" x="176.7642" y="-235.8" font-family="Times,serif" font-size="14.00" fill="#000000">OwnedBy { owned_field: "comment" }</text>
</g>
<!-- 4 -->
<g id="node5" class="node">
<title>4</title>
<ellipse fill="none" stroke="#000000" cx="545.9682" cy="-284.4" rx="65.0744" ry="18"/>
<text text-anchor="middle" x="545.9682" y="-280.2" font-family="Times,serif" font-size="14.00" fill="#000000">"attachments"</text>
</g>
<!-- 4&#45;&gt;0 -->
<g id="edge6" class="edge">
<title>4-&gt;0</title>
<path fill="none" stroke="#000000" d="M545.9682,-266.3934C545.9682,-235.412 545.9682,-171.806 545.9682,-134.9346"/>
<polygon fill="#000000" stroke="#000000" points="549.4683,-134.8542 545.9682,-124.8543 542.4683,-134.8543 549.4683,-134.8542"/>
<text text-anchor="middle" x="642.3813" y="-191.4" font-family="Times,serif" font-size="14.00" fill="#000000">OwnedBy { owned_field: "post" }</text>
</g>
<!-- 4&#45;&gt;1 -->
<g id="edge5" class="edge">
<title>4-&gt;1</title>
<path fill="none" stroke="#000000" d="M596.5648,-272.8664C648.7304,-259.8725 724.9291,-237.4356 742.9682,-213.6 785.8583,-156.9279 799.1389,-108.0329 752.9682,-54 741.4395,-40.5082 636.7007,-28.4511 573.2648,-22.303"/>
<polygon fill="#000000" stroke="#000000" points="573.3646,-18.7968 563.0775,-21.332 572.7003,-25.7652 573.3646,-18.7968"/>
<text text-anchor="middle" x="876.3736" y="-147" font-family="Times,serif" font-size="14.00" fill="#000000">OwnedBy { owned_field: "user" }</text>
</g>
<!-- 4&#45;&gt;2 -->
<g id="edge7" class="edge">
<title>4-&gt;2</title>
<path fill="none" stroke="#000000" d="M482.1608,-280.749C422.1956,-276.2457 337.6988,-266.8091 310.3762,-248.4 301.2211,-242.2316 294.335,-232.4205 289.3795,-222.9204"/>
<polygon fill="#000000" stroke="#000000" points="292.4609,-221.247 285.0552,-213.6703 286.1196,-224.2116 292.4609,-221.247"/>
<text text-anchor="middle" x="421.7642" y="-235.8" font-family="Times,serif" font-size="14.00" fill="#000000">OwnedBy { owned_field: "comment" }</text>
</g>
<!-- 5 -->
<g id="node6" class="node">
<title>5</title>
<ellipse fill="none" stroke="#000000" cx="982.9682" cy="-195.6" rx="55.8711" ry="18"/>
<text text-anchor="middle" x="982.9682" y="-191.4" font-family="Times,serif" font-size="14.00" fill="#000000">"modposts"</text>
</g>
<!-- 6 -->
<g id="node7" class="node">
<title>6</title>
<ellipse fill="none" stroke="#000000" cx="1107.9682" cy="-106.8" rx="63.3741" ry="18"/>
<text text-anchor="middle" x="1107.9682" y="-102.6" font-family="Times,serif" font-size="14.00" fill="#000000">"mediamods"</text>
</g>
<!-- 5&#45;&gt;6 -->
<g id="edge8" class="edge">
<title>5-&gt;6</title>
<path fill="none" stroke="#000000" d="M978.2947,-177.4514C976.5588,-166.3553 976.5331,-152.4821 983.9456,-142.8 991.7707,-132.5788 1017.5294,-124.2839 1043.5588,-118.2437"/>
<polygon fill="#000000" stroke="#000000" points="1044.5045,-121.6191 1053.5113,-116.0398 1042.9911,-114.7847 1044.5045,-121.6191"/>
<text text-anchor="middle" x="1097.4795" y="-147" font-family="Times,serif" font-size="14.00" fill="#000000">OwnedBy { owned_field: "moderator" }</text>
</g>
<!-- 7 -->
<g id="node8" class="node">
<title>7</title>
<ellipse fill="none" stroke="#000000" cx="1232.9682" cy="-195.6" rx="72.5832" ry="18"/>
<text text-anchor="middle" x="1232.9682" y="-191.4" font-family="Times,serif" font-size="14.00" fill="#000000">"modresources"</text>
</g>
<!-- 7&#45;&gt;6 -->
<g id="edge9" class="edge">
<title>7-&gt;6</title>
<path fill="none" stroke="#000000" d="M1229.4062,-177.5282C1226.3059,-166.1783 1220.7212,-151.9981 1210.9682,-142.8 1199.9952,-132.4514 1185.8836,-125.0576 1171.6475,-119.7816"/>
<polygon fill="#000000" stroke="#000000" points="1172.4031,-116.3426 1161.8089,-116.4571 1170.1622,-122.9742 1172.4031,-116.3426"/>
<text text-anchor="middle" x="1336.4795" y="-147" font-family="Times,serif" font-size="14.00" fill="#000000">OwnedBy { owned_field: "moderator" }</text>
</g>
<!-- 8 -->
<g id="node9" class="node">
<title>8</title>
<ellipse fill="none" stroke="#000000" cx="981.9682" cy="-284.4" rx="67.9269" ry="18"/>
<text text-anchor="middle" x="981.9682" y="-280.2" font-family="Times,serif" font-size="14.00" fill="#000000">"mresource1s"</text>
</g>
<!-- 8&#45;&gt;7 -->
<g id="edge10" class="edge">
<title>8-&gt;7</title>
<path fill="none" stroke="#000000" d="M983.869,-266.2805C986.0778,-254.6104 990.8532,-240.0856 1001.177,-231.6 1013.1534,-221.756 1092.8915,-210.8857 1155.5424,-203.6929"/>
<polygon fill="#000000" stroke="#000000" points="1156.2901,-207.1307 1165.8322,-202.5266 1155.5017,-200.1752 1156.2901,-207.1307"/>
<text text-anchor="middle" x="1115.8638" y="-235.8" font-family="Times,serif" font-size="14.00" fill="#000000">OwnedBy { owned_field: "parent_res" }</text>
</g>
<!-- 9 -->
<g id="node10" class="node">
<title>9</title>
<ellipse fill="none" stroke="#000000" cx="1232.9682" cy="-284.4" rx="67.9269" ry="18"/>
<text text-anchor="middle" x="1232.9682" y="-280.2" font-family="Times,serif" font-size="14.00" fill="#000000">"mresources2"</text>
</g>
<!-- 9&#45;&gt;7 -->
<g id="edge11" class="edge">
<title>9-&gt;7</title>
<path fill="none" stroke="#000000" d="M1232.9682,-266.0006C1232.9682,-253.8949 1232.9682,-237.8076 1232.9682,-224.0674"/>
<polygon fill="#000000" stroke="#000000" points="1236.4682,-223.672 1232.9682,-213.672 1229.4682,-223.6721 1236.4682,-223.672"/>
<text text-anchor="middle" x="1346.8638" y="-235.8" font-family="Times,serif" font-size="14.00" fill="#000000">OwnedBy { owned_field: "parent_res" }</text>
</g>
<!-- 10 -->
<g id="node11" class="node">
<title>10</title>
<ellipse fill="none" stroke="#000000" cx="1483.9682" cy="-284.4" rx="67.9269" ry="18"/>
<text text-anchor="middle" x="1483.9682" y="-280.2" font-family="Times,serif" font-size="14.00" fill="#000000">"mresources3"</text>
</g>
<!-- 10&#45;&gt;7 -->
<g id="edge12" class="edge">
<title>10-&gt;7</title>
<path fill="none" stroke="#000000" d="M1481.0611,-266.2285C1478.2144,-254.5359 1472.6659,-240.0054 1461.9682,-231.6 1439.3171,-213.8028 1370.3899,-204.6526 1314.0248,-200.0439"/>
<polygon fill="#000000" stroke="#000000" points="1314.263,-196.5519 1304.0207,-199.262 1313.7175,-203.5307 1314.263,-196.5519"/>
<text text-anchor="middle" x="1587.8638" y="-235.8" font-family="Times,serif" font-size="14.00" fill="#000000">OwnedBy { owned_field: "parent_res" }</text>
</g>
</g>
</svg>